<svg width="54" height="49" viewBox="0 0 54 49" fill="none" xmlns="http://www.w3.org/2000/svg">
<path d="M37 47V42C37 39.3478 35.9464 36.8043 34.0711 34.9289C32.1957 33.0536 29.6522 32 27 32H12C9.34784 32 6.8043 33.0536 4.92893 34.9289C3.05357 36.8043 2 39.3478 2 42V47" stroke="#6C93FC" stroke-width="4" stroke-linecap="round" stroke-linejoin="round"/>
<path d="M19.5 22C25.0228 22 29.5 17.5228 29.5 12C29.5 6.47715 25.0228 2 19.5 2C13.9772 2 9.5 6.47715 9.5 12C9.5 17.5228 13.9772 22 19.5 22Z" stroke="#6C93FC" stroke-width="4" stroke-linecap="round" stroke-linejoin="round"/>
<path d="M44.5 14.5V29.5M52 22H37" stroke="#6C93FC" stroke-width="4" stroke-linecap="round" stroke-linejoin="round"/>
</svg>
