<svg width="50" height="50" viewBox="0 0 50 50" fill="none" xmlns="http://www.w3.org/2000/svg">
<path fill-rule="evenodd" clip-rule="evenodd" d="M39.9193 41.2704C39.9494 41.275 39.9818 41.2796 40.0119 41.2842C41.0096 41.4366 41.6091 41.7461 41.9981 42.1687C42.292 42.4874 42.4842 42.8823 42.5883 43.3927C42.6994 43.9262 42.7087 44.6283 42.7087 45.5543C42.7087 46.4804 42.6994 47.1825 42.5883 47.716C42.4842 48.2263 42.292 48.6212 41.9981 48.94C41.6092 49.3626 41.0096 49.6721 40.0119 49.8245C38.9078 49.9931 37.1856 50 34.4911 50C31.7967 50 30.0745 49.9931 28.9703 49.8245C27.9726 49.6721 27.3731 49.3626 26.9842 48.94C26.6902 48.6213 26.4981 48.2264 26.3939 47.716C26.2828 47.1825 26.2735 46.4804 26.2735 45.5543C26.2735 44.6283 26.2828 43.9262 26.3939 43.3927C26.4981 42.8823 26.6902 42.4875 26.9842 42.1687C27.3731 41.7461 27.9726 41.4366 28.9703 41.2842C29.0351 41.275 29.0999 41.2657 29.1671 41.2565V31.2176C29.1671 30.474 29.468 29.7604 30.0004 29.2384L36.4329 22.9449C36.4538 22.9264 36.4746 22.9079 36.4954 22.8894C37.0579 22.4322 38.2941 21.8663 39.4676 22.3721V21.0904C39.4676 21.0742 39.4676 21.058 39.4699 21.0395C39.5255 20.0095 39.8496 18.4645 40.632 17.1735C41.4074 15.894 42.6065 14.8641 44.375 14.6909C44.8704 13.5061 45.6644 12.3629 46.8565 11.7325C48.3865 10.9241 50 12.2452 50 13.9703V24.1553C50 24.668 49.8565 25.1691 49.588 25.6056L39.9193 41.2704ZM31.0186 41.1364C31.9445 41.111 33.0858 41.1087 34.4908 41.1087C35.8288 41.1087 36.926 41.111 37.8288 41.1318L48.0119 24.638C48.0998 24.4925 48.1485 24.3262 48.1485 24.1553V13.9704C48.1485 13.781 48.0883 13.5985 47.9818 13.4669C47.917 13.3861 47.8267 13.3099 47.7225 13.3653C46.1161 14.2152 45.623 16.4091 45.5512 17.6332V21.7209C45.5512 22.4646 45.2526 23.1759 44.7225 23.6978L36.1809 32.0719C35.8175 32.4298 35.2318 32.4252 34.8731 32.0603C34.5143 31.6977 34.5189 31.1134 34.8847 30.7555L38.7782 26.9357C38.7874 26.908 38.799 26.878 38.8129 26.8479C39.0027 26.4438 39.2434 25.7279 39.2365 25.0535C39.2342 24.7555 39.1971 24.4599 38.9957 24.2567C38.5374 23.7971 37.9564 24.0973 37.6948 24.2982L31.2966 30.5569C31.1184 30.7324 31.0188 30.9703 31.0188 31.2174L31.0186 41.1364ZM43.7961 16.7161C43.0947 16.9909 42.5831 17.5244 42.2173 18.1295C41.6155 19.1226 41.3678 20.3142 41.3192 21.1179V24.4435L43.4234 22.3812C43.5993 22.2057 43.6988 21.9701 43.6988 21.7207V17.6076C43.6988 17.5914 43.7012 17.5752 43.7012 17.5591C43.715 17.3027 43.7451 17.0187 43.7961 16.7161ZM34.4906 48.1524C37.0462 48.1524 38.6827 48.1593 39.7314 47.9977C40.1689 47.933 40.4629 47.8776 40.6341 47.6905C40.7499 47.5635 40.7753 47.381 40.8054 47.1547C40.861 46.7344 40.8563 46.2101 40.8563 45.5543C40.8563 44.8984 40.861 44.3742 40.8054 43.9539C40.7753 43.7275 40.7499 43.5451 40.6341 43.4181C40.4628 43.231 40.1688 43.1756 39.7314 43.1109C38.6828 42.9492 37.0462 42.9562 34.4906 42.9562C31.935 42.9562 30.2985 42.9493 29.2498 43.1109C28.8124 43.1756 28.5184 43.231 28.3471 43.4181C28.2314 43.5451 28.2059 43.7275 28.1758 43.9539C28.1202 44.3742 28.1249 44.8984 28.1249 45.5543C28.1249 46.2101 28.1202 46.7344 28.1758 47.1547C28.2059 47.381 28.2314 47.5635 28.3471 47.6905C28.5184 47.8776 28.8124 47.933 29.2498 47.9977C30.2984 48.1593 31.935 48.1524 34.4906 48.1524ZM10.1689 41.2748L0.41898 25.6122C0.14352 25.1711 0 24.6676 0 24.1503V13.9701C0 12.2495 1.60646 10.9286 3.1389 11.7207C4.34956 12.3488 5.15507 13.4943 5.6551 14.6837C7.46991 14.8292 8.69675 15.8753 9.48377 17.1732C10.2662 18.4642 10.5903 20.0093 10.6458 21.0393C10.6481 21.0578 10.6481 21.0739 10.6481 21.0901V22.3719C11.8217 21.8661 13.0578 22.4319 13.6203 22.8892C13.6411 22.9076 13.662 22.9261 13.6828 22.9446L20.1154 29.2381C20.6478 29.7601 20.9487 30.4737 20.9487 31.2173V41.2562C21.0158 41.2655 21.0806 41.2747 21.1454 41.284C22.1431 41.4364 22.7427 41.7458 23.1316 42.1685C23.4255 42.4872 23.6177 42.8821 23.7218 43.3925C23.833 43.926 23.8422 44.628 23.8422 45.5541C23.8422 46.4802 23.833 47.1822 23.7218 47.7157C23.6177 48.2261 23.4255 48.621 23.1316 48.9397C22.7427 49.3623 22.1431 49.6718 21.1454 49.8242C20.0413 49.9928 18.3191 49.9997 15.6246 49.9997C12.9302 49.9997 11.208 49.9928 10.1038 49.8242C9.10612 49.6718 8.50659 49.3623 8.11767 48.9397C7.8237 48.621 7.63157 48.2261 7.5274 47.7157C7.41629 47.1822 7.40703 46.4802 7.40703 45.5541C7.40703 44.628 7.41629 43.9259 7.5274 43.3925C7.63157 42.8821 7.8237 42.4872 8.11767 42.1685C8.50656 41.7458 9.10612 41.4364 10.1038 41.284C10.1246 41.2793 10.148 41.2771 10.1689 41.2748ZM6.23603 16.6836C6.28927 16.9977 6.32168 17.2933 6.33557 17.5566C6.33789 17.5751 6.33789 17.5912 6.33789 17.6074V21.7159C6.33789 21.9653 6.43974 22.2032 6.61798 22.3787L8.79623 24.4965V21.1154C8.74762 20.314 8.49993 19.1223 7.8981 18.1293C7.51615 17.4988 6.9814 16.9492 6.23603 16.6836ZM11.3541 26.9838L15.2291 30.7528C15.5948 31.1085 15.6041 31.6928 15.2453 32.0577C14.8888 32.4225 14.3032 32.4318 13.9374 32.0761L5.32412 23.7021C4.7894 23.1802 4.48614 22.4642 4.48614 21.716V17.6329C4.41438 16.4066 3.91438 14.2057 2.28478 13.3604C2.1783 13.3073 2.0857 13.3812 2.01857 13.4643C1.91209 13.5983 1.85191 13.7807 1.85191 13.9701V24.1503C1.85191 24.3235 1.90052 24.4898 1.9908 24.6353L12.2616 41.1338C13.169 41.1107 14.2755 41.1084 15.625 41.1084C17.0301 41.1084 18.1713 41.1107 19.0973 41.1361V31.2172C19.0973 30.9701 18.9977 30.7323 18.8195 30.5567C18.8195 30.5567 12.4213 24.2981 12.4189 24.2981C12.1596 24.0972 11.5786 23.7969 11.1203 24.2565C10.9189 24.4598 10.8819 24.7554 10.8796 25.0533C10.8726 25.7277 11.1133 26.4436 11.3032 26.8478C11.324 26.894 11.3402 26.9376 11.3541 26.9838ZM15.6249 48.1524C18.1804 48.1524 19.817 48.1593 20.8656 47.9977C21.3031 47.933 21.5971 47.8776 21.7684 47.6905C21.8841 47.5635 21.9096 47.381 21.9397 47.1547C21.9952 46.7344 21.9906 46.2101 21.9906 45.5543C21.9906 44.8984 21.9952 44.3742 21.9397 43.9539C21.9096 43.7275 21.8841 43.5451 21.7684 43.4181C21.5971 43.231 21.3031 43.1756 20.8656 43.1109C19.817 42.9492 18.1805 42.9562 15.6249 42.9562C13.0693 42.9562 11.4328 42.9493 10.3841 43.1109C9.94662 43.1756 9.65262 43.231 9.48136 43.4181C9.36562 43.5451 9.34016 43.7275 9.31007 43.9539C9.25451 44.3742 9.25914 44.8984 9.25914 45.5543C9.25914 46.2101 9.25451 46.7344 9.31007 47.1547C9.34016 47.381 9.36562 47.5635 9.48136 47.6905C9.65265 47.8776 9.94664 47.933 10.3841 47.9977C11.4327 48.1593 13.0693 48.1524 15.6249 48.1524ZM37.2681 12.1247C37.2681 18.8197 31.8028 24.2494 25.0577 24.2494C18.3123 24.2494 12.8474 18.8199 12.8474 12.1247C12.8474 5.42975 18.3127 0 25.0577 0C31.8032 0 37.2681 5.42952 37.2681 12.1247ZM32.1547 19.6119C34.1616 17.7366 35.4162 15.0761 35.4162 12.1247C35.4162 6.44807 30.7774 1.84756 25.0577 1.84756C19.3381 1.84756 14.6992 6.44795 14.6992 12.1247C14.6992 15.03 15.9145 17.6512 17.8659 19.522C18.5257 16.686 21.1738 14.5498 24.3637 14.5498H25.6368C28.859 14.5498 31.5303 16.7299 32.1553 19.6121L32.1547 19.6119ZM19.5597 20.8359C21.1523 21.829 23.0389 22.4017 25.0574 22.4017C27.0273 22.4017 28.8699 21.8567 30.4393 20.9075V20.9006C30.4393 18.3994 28.275 16.3971 25.636 16.3971H24.3629C21.7449 16.3971 19.5968 18.3648 19.5597 20.8359ZM20.9487 8.42977C20.9487 6.19887 22.7635 4.38826 24.9995 4.38826C27.2356 4.38826 29.0504 6.19887 29.0504 8.42977V9.46902C29.0504 11.6999 27.2356 13.5105 24.9995 13.5105C22.7635 13.5105 20.9487 11.6999 20.9487 9.46902V8.42977ZM22.8005 8.42977V9.46902C22.8005 10.6792 23.7866 11.663 24.9995 11.663C26.2125 11.663 27.1986 10.6791 27.1986 9.46902V8.42977C27.1986 7.21961 26.2125 6.23582 24.9995 6.23582C23.7866 6.23582 22.8005 7.21967 22.8005 8.42977Z" fill="#6C93FC"/>
</svg>
