<svg width="15" height="15" viewBox="0 0 15 15" fill="none" xmlns="http://www.w3.org/2000/svg">
<path d="M14.0625 1.40524L10.3092 1.40526V0.471039C10.3092 0.212054 10.0995 0.00228882 9.84047 0.00228882C9.58148 0.00228882 9.37172 0.212054 9.37172 0.471039V1.40502H5.62172V0.471039C5.62172 0.212054 5.41195 0.00228882 5.15297 0.00228882C4.89398 0.00228882 4.68422 0.212054 4.68422 0.471039V1.40502H0.9375C0.419766 1.40502 0 1.82479 0 2.34252V14.0613C0 14.579 0.419766 14.9988 0.9375 14.9988H14.0625C14.5802 14.9988 15 14.579 15 14.0613V2.34252C15 1.82501 14.5802 1.40524 14.0625 1.40524ZM14.0625 14.0613H0.9375V2.34252H4.68422V2.81479C4.68422 3.07376 4.89398 3.28354 5.15297 3.28354C5.41195 3.28354 5.62172 3.07376 5.62172 2.81479V2.34276H9.37172V2.81502C9.37172 3.07401 9.58148 3.28377 9.84047 3.28377C10.0995 3.28377 10.3092 3.07401 10.3092 2.81502V2.34276H14.0625V14.0613ZM10.7812 7.49899H11.7188C11.9775 7.49899 12.1875 7.28899 12.1875 7.03024V6.09274C12.1875 5.83399 11.9775 5.62399 11.7188 5.62399H10.7812C10.5225 5.62399 10.3125 5.83399 10.3125 6.09274V7.03024C10.3125 7.28899 10.5225 7.49899 10.7812 7.49899ZM10.7812 11.2488H11.7188C11.9775 11.2488 12.1875 11.039 12.1875 10.78V9.84251C12.1875 9.58376 11.9775 9.37376 11.7188 9.37376H10.7812C10.5225 9.37376 10.3125 9.58376 10.3125 9.84251V10.78C10.3125 11.0392 10.5225 11.2488 10.7812 11.2488ZM7.96875 9.37376H7.03125C6.7725 9.37376 6.5625 9.58376 6.5625 9.84251V10.78C6.5625 11.039 6.7725 11.2488 7.03125 11.2488H7.96875C8.2275 11.2488 8.4375 11.039 8.4375 10.78V9.84251C8.4375 9.58399 8.2275 9.37376 7.96875 9.37376ZM7.96875 5.62399H7.03125C6.7725 5.62399 6.5625 5.83399 6.5625 6.09274V7.03024C6.5625 7.28899 6.7725 7.49899 7.03125 7.49899H7.96875C8.2275 7.49899 8.4375 7.28899 8.4375 7.03024V6.09274C8.4375 5.83376 8.2275 5.62399 7.96875 5.62399ZM4.21875 5.62399H3.28125C3.0225 5.62399 2.8125 5.83399 2.8125 6.09274V7.03024C2.8125 7.28899 3.0225 7.49899 3.28125 7.49899H4.21875C4.4775 7.49899 4.6875 7.28899 4.6875 7.03024V6.09274C4.6875 5.83376 4.4775 5.62399 4.21875 5.62399ZM4.21875 9.37376H3.28125C3.0225 9.37376 2.8125 9.58376 2.8125 9.84251V10.78C2.8125 11.039 3.0225 11.2488 3.28125 11.2488H4.21875C4.4775 11.2488 4.6875 11.039 4.6875 10.78V9.84251C4.6875 9.58399 4.4775 9.37376 4.21875 9.37376Z" fill="black"/>
</svg>
