<svg width="66" height="53" viewBox="0 0 66 53" fill="none" xmlns="http://www.w3.org/2000/svg">
<path fill-rule="evenodd" clip-rule="evenodd" d="M45.725 1.82502C45.725 1.38078 45.9015 0.954736 46.2156 0.640613C46.5297 0.32649 46.9558 0.150017 47.4 0.150017H54.1C54.5442 0.150017 54.9703 0.32649 55.2844 0.640613C55.5985 0.954736 55.775 1.38078 55.775 1.82502V5.17501H60.8C61.2442 5.17501 61.6703 5.35149 61.9844 5.66561C62.2985 5.97973 62.475 6.40578 62.475 6.85001V16.9H67.5V20.25H62.475V30.3C62.475 30.7442 62.2985 31.1703 61.9844 31.4844C61.6703 31.7985 61.2442 31.975 60.8 31.975H55.775V35.325C55.775 35.7692 55.5985 36.1953 55.2844 36.5094C54.9703 36.8235 54.5442 37 54.1 37H47.4C46.9558 37 46.5297 36.8235 46.2156 36.5094C45.9015 36.1953 45.725 35.7692 45.725 35.325V20.25H22.275V35.325C22.275 35.7692 22.0985 36.1953 21.7844 36.5094C21.4703 36.8235 21.0442 37 20.6 37H13.9C13.4558 37 13.0297 36.8235 12.7156 36.5094C12.4015 36.1953 12.225 35.7692 12.225 35.325V31.975H7.2C6.75576 31.975 6.32972 31.7985 6.0156 31.4844C5.70147 31.1703 5.525 30.7442 5.525 30.3V20.25H0.5V16.9H5.525V6.85001C5.525 6.40578 5.70147 5.97973 6.0156 5.66561C6.32972 5.35149 6.75576 5.17501 7.2 5.17501H12.225V1.82502C12.225 1.38078 12.4015 0.954736 12.7156 0.640613C13.0297 0.32649 13.4558 0.150017 13.9 0.150017H20.6C21.0442 0.150017 21.4703 0.32649 21.7844 0.640613C22.0985 0.954736 22.275 1.38078 22.275 1.82502V16.9H45.725V1.82502ZM15.575 33.65H18.925V3.50002H15.575V33.65ZM12.225 8.52501H8.875V28.625H12.225V8.52501ZM55.775 28.625V8.52501H59.125V28.625H55.775ZM52.425 3.50002V33.65H49.075V3.50002H52.425Z" fill="#6C93FC"/>
</svg>
