<svg width="49" height="49" viewBox="0 0 49 49" fill="none" xmlns="http://www.w3.org/2000/svg">
<path d="M38.7718 14.5674C40.2064 16.6224 41.1772 18.9647 41.6169 21.4321H47V27.5679H41.6169C41.1772 30.0353 40.2064 32.3776 38.7718 34.4326L42.5799 38.2408L38.2408 42.5799L34.4326 38.7718C32.3776 40.2064 30.0353 41.1772 27.5679 41.6169V47H21.4321V41.6169C18.9647 41.1772 16.6224 40.2064 14.5674 38.7718L10.7593 42.5799L6.42012 38.2408L10.2283 34.4326C8.79358 32.3776 7.82279 30.0353 7.38312 27.5679H2V21.4321H7.38312C7.82279 18.9647 8.79358 16.6224 10.2283 14.5674L6.42012 10.7593L10.7593 6.42012L14.5674 10.2283C16.6224 8.79358 18.9647 7.82279 21.4321 7.38312V2H27.5679V7.38312C30.0353 7.82279 32.3776 8.79358 34.4326 10.2283L38.2408 6.42012L42.5799 10.7593L38.7718 14.5674Z" stroke="#6C93FC" stroke-width="4" stroke-linejoin="round"/>
<path d="M24.5 30.125C25.9918 30.125 27.4226 29.5324 28.4775 28.4775C29.5324 27.4226 30.125 25.9918 30.125 24.5C30.125 23.0082 29.5324 21.5774 28.4775 20.5225C27.4226 19.4676 25.9918 18.875 24.5 18.875C23.0082 18.875 21.5774 19.4676 20.5225 20.5225C19.4676 21.5774 18.875 23.0082 18.875 24.5C18.875 25.9918 19.4676 27.4226 20.5225 28.4775C21.5774 29.5324 23.0082 30.125 24.5 30.125Z" stroke="#6C93FC" stroke-width="4" stroke-linejoin="round"/>
</svg>
