<svg width="68" height="50" viewBox="0 0 68 50" fill="none" xmlns="http://www.w3.org/2000/svg"  >
<path fill-rule="evenodd" clip-rule="evenodd" d="M46.008 47.0482C46.0424 47.0535 46.0793 47.0587 46.1136 47.064C47.251 47.2378 47.9344 47.5905 48.3778 48.0723C48.7129 48.4357 48.9319 48.8859 49.0507 49.4677C49.1774 50.0759 49.1879 50.8762 49.1879 51.932C49.1879 52.9877 49.1774 53.7881 49.0507 54.3962C48.9319 54.978 48.7129 55.4282 48.3778 55.7916C47.9345 56.2733 47.251 56.6262 46.1136 56.7999C44.8548 56.9921 42.8915 57 39.8199 57C36.7482 57 34.7849 56.9921 33.5261 56.7999C32.3888 56.6261 31.7053 56.2734 31.262 55.7916C30.9268 55.4282 30.7078 54.9781 30.589 54.3962C30.4624 53.788 30.4518 52.9877 30.4518 51.932C30.4518 50.8762 30.4624 50.0759 30.589 49.4677C30.7078 48.8859 30.9268 48.4357 31.262 48.0723C31.7053 47.5906 32.3888 47.2378 33.5261 47.064C33.6 47.0535 33.6739 47.0429 33.7504 47.0324V35.5881C33.7504 34.7403 34.0935 33.9268 34.7004 33.3318L42.0335 26.1571C42.0573 26.1361 42.081 26.115 42.1048 26.094C42.746 25.5727 44.1552 24.9276 45.4931 25.5042V24.043C45.4931 24.0246 45.4931 24.0061 45.4957 23.9851C45.5591 22.8109 45.9285 21.0495 46.8204 19.5778C47.7045 18.1192 49.0714 16.9451 51.0875 16.7476C51.6522 15.397 52.5574 14.0937 53.9164 13.375C55.6607 12.4535 57.5 13.9595 57.5 15.9262V27.537C57.5 28.1215 57.3364 28.6928 57.0303 29.1904L46.008 47.0482ZM35.8612 46.8955C36.9168 46.8665 38.2178 46.8639 39.8196 46.8639C41.3448 46.8639 42.5957 46.8665 43.6248 46.8902L55.2335 28.0873C55.3338 27.9214 55.3892 27.7319 55.3892 27.537V15.9262C55.3892 15.7103 55.3206 15.5023 55.1992 15.3523C55.1253 15.2601 55.0224 15.1732 54.9037 15.2364C53.0723 16.2053 52.5102 18.7064 52.4284 20.1018V24.7619C52.4284 25.6096 52.088 26.4205 51.4837 27.0155L41.7463 36.5619C41.332 36.97 40.6643 36.9647 40.2553 36.5488C39.8463 36.1354 39.8516 35.4693 40.2685 35.0613L44.7071 30.7067C44.7177 30.6751 44.7308 30.6409 44.7467 30.6066C44.9631 30.1459 45.2375 29.3298 45.2296 28.5609C45.227 28.2213 45.1847 27.8843 44.9552 27.6526C44.4327 27.1287 43.7703 27.471 43.4721 27.7L36.1782 34.8349C35.975 35.0349 35.8615 35.3061 35.8615 35.5878L35.8612 46.8955ZM50.4275 19.0564C49.6279 19.3697 49.0447 19.9779 48.6278 20.6676C47.9417 21.7997 47.6593 23.1582 47.6039 24.0744V27.8656L50.0027 25.5145C50.2032 25.3145 50.3167 25.0459 50.3167 24.7616V20.0726C50.3167 20.0542 50.3193 20.0358 50.3193 20.0173C50.3352 19.7251 50.3695 19.4013 50.4275 19.0564ZM39.8193 54.8937C42.7326 54.8937 44.5983 54.9016 45.7938 54.7173C46.2925 54.6436 46.6277 54.5804 46.8229 54.3672C46.9548 54.2224 46.9839 54.0144 47.0182 53.7564C47.0815 53.2772 47.0762 52.6795 47.0762 51.9319C47.0762 51.1842 47.0815 50.5865 47.0182 50.1074C46.9839 49.8494 46.9548 49.6414 46.8229 49.4966C46.6276 49.2833 46.2925 49.2202 45.7938 49.1464C44.5984 48.9621 42.7327 48.97 39.8193 48.97C36.9059 48.97 35.0403 48.9621 33.8448 49.1464C33.3461 49.2202 33.0109 49.2833 32.8157 49.4966C32.6838 49.6414 32.6547 49.8494 32.6204 50.1074C32.5571 50.5866 32.5624 51.1842 32.5624 51.9319C32.5624 52.6795 32.5571 53.2772 32.6204 53.7564C32.6547 54.0144 32.6838 54.2224 32.8157 54.3672C33.011 54.5804 33.3461 54.6436 33.8448 54.7173C35.0402 54.9016 36.9059 54.8937 39.8193 54.8937ZM12.0925 47.0532L0.977637 29.1979C0.663612 28.695 0.5 28.1211 0.5 27.5313V15.9259C0.5 13.9645 2.33136 12.4586 4.07834 13.3616C5.4585 14.0777 6.37678 15.3835 6.94681 16.7394C9.0157 16.9053 10.4143 18.0979 11.3115 19.5775C12.2034 21.0492 12.5729 22.8106 12.6362 23.9848C12.6388 24.0058 12.6388 24.0243 12.6388 24.0427V25.5039C13.9768 24.9273 15.3859 25.5724 16.0271 26.0937C16.0509 26.1147 16.0746 26.1358 16.0984 26.1568L23.4315 33.3315C24.0385 33.9265 24.3815 34.74 24.3815 35.5878V47.0321C24.458 47.0426 24.5319 47.0532 24.6058 47.0637C25.7432 47.2375 26.4266 47.5903 26.87 48.0721C27.2051 48.4354 27.4242 48.8856 27.5429 49.4674C27.6696 50.0756 27.6801 50.8759 27.6801 51.9317C27.6801 52.9874 27.6696 53.7878 27.5429 54.3959C27.4242 54.9777 27.2051 55.4279 26.87 55.7913C26.4267 56.2731 25.7432 56.6259 24.6058 56.7996C23.347 56.9918 21.3837 56.9997 18.3121 56.9997C15.2404 56.9997 13.2771 56.9918 12.0183 56.7996C10.881 56.6259 10.1975 56.2731 9.75415 55.7913C9.41901 55.4279 9.19999 54.9778 9.08124 54.3959C8.95457 53.7877 8.94402 52.9874 8.94402 51.9317C8.94402 50.8759 8.95457 50.0756 9.08124 49.4674C9.19999 48.8856 9.41901 48.4354 9.75415 48.0721C10.1975 47.5903 10.881 47.2375 12.0183 47.0637C12.0421 47.0584 12.0688 47.0559 12.0925 47.0532ZM7.60908 19.0193C7.66977 19.3774 7.70672 19.7143 7.72255 20.0145C7.72519 20.0356 7.72519 20.054 7.72519 20.0724V24.7561C7.72519 25.0405 7.8413 25.3116 8.0445 25.5117L10.5277 27.926V24.0716C10.4723 23.158 10.1899 21.7995 9.50383 20.6674C9.06841 19.9486 8.45879 19.3221 7.60908 19.0193ZM13.4436 30.7615L17.8612 35.0582C18.2781 35.4637 18.2887 36.1297 17.8796 36.5457C17.4732 36.9617 16.8056 36.9722 16.3887 36.5668L6.5695 27.0204C5.95992 26.4254 5.6142 25.6092 5.6142 24.7562V20.1015C5.53239 18.7035 4.9624 16.1944 3.10465 15.2308C2.98326 15.1703 2.8777 15.2545 2.80118 15.3493C2.67979 15.502 2.61118 15.71 2.61118 15.9259V27.5313C2.61118 27.7288 2.66659 27.9183 2.76951 28.0842L14.4782 46.8925C15.5126 46.8662 16.774 46.8636 18.3125 46.8636C19.9143 46.8636 21.2153 46.8662 22.2709 46.8952V35.5877C22.2709 35.306 22.1574 35.0348 21.9542 34.8347C21.9542 34.8347 14.6602 27.6998 14.6575 27.6998C14.362 27.4708 13.6996 27.1285 13.1771 27.6524C12.9476 27.8841 12.9053 28.2211 12.9027 28.5608C12.8948 29.3295 13.1692 30.1457 13.3856 30.6065C13.4094 30.6591 13.4278 30.7089 13.4436 30.7615ZM18.3124 54.8937C21.2257 54.8937 23.0914 54.9016 24.2868 54.7173C24.7856 54.6436 25.1207 54.5804 25.316 54.3672C25.4479 54.2224 25.4769 54.0144 25.5112 53.7564C25.5746 53.2772 25.5693 52.6795 25.5693 51.9319C25.5693 51.1842 25.5746 50.5865 25.5112 50.1074C25.4769 49.8494 25.4479 49.6414 25.316 49.4966C25.1207 49.2833 24.7855 49.2202 24.2868 49.1464C23.0914 48.9621 21.2257 48.97 18.3124 48.97C15.399 48.97 13.5333 48.9621 12.3379 49.1464C11.8391 49.2202 11.504 49.2833 11.3088 49.4966C11.1768 49.6414 11.1478 49.8494 11.1135 50.1074C11.0501 50.5866 11.0554 51.1842 11.0554 51.9319C11.0554 52.6795 11.0501 53.2772 11.1135 53.7564C11.1478 54.0144 11.1768 54.2224 11.3088 54.3672C11.504 54.5804 11.8392 54.6436 12.3379 54.7173C13.5333 54.9016 15.399 54.8937 18.3124 54.8937ZM42.9856 13.8222C42.9856 21.4544 36.7552 27.6443 29.0658 27.6443C21.376 27.6443 15.146 21.4547 15.146 13.8222C15.146 6.18992 21.3765 0 29.0658 0C36.7557 0 42.9856 6.18965 42.9856 13.8222ZM37.1563 22.3576C39.4442 20.2197 40.8745 17.1868 40.8745 13.8222C40.8745 7.3508 35.5862 2.10622 29.0658 2.10622C22.5454 2.10622 17.2571 7.35066 17.2571 13.8222C17.2571 17.1342 18.6426 20.1224 20.8672 22.2551C21.6193 19.0221 24.6381 16.5867 28.2746 16.5867H29.726C33.3993 16.5867 36.4446 19.0721 37.1571 22.3578L37.1563 22.3576ZM22.7981 23.7529C24.6137 24.885 26.7643 25.5379 29.0654 25.5379C31.3111 25.5379 33.4117 24.9166 35.2008 23.8346V23.8267C35.2008 20.9753 32.7335 18.6927 29.7251 18.6927H28.2737C25.2891 18.6927 22.8403 20.9359 22.7981 23.7529ZM24.3815 9.60994C24.3815 7.06671 26.4503 5.00262 28.9995 5.00262C31.5486 5.00262 33.6175 7.06671 33.6175 9.60994V10.7947C33.6175 13.3379 31.5486 15.402 28.9995 15.402C26.4503 15.402 24.3815 13.3379 24.3815 10.7947V9.60994ZM26.4926 9.60994V10.7947C26.4926 12.1743 27.6168 13.2958 28.9995 13.2958C30.3822 13.2958 31.5064 12.1742 31.5064 10.7947V9.60994C31.5064 8.23035 30.3822 7.10884 28.9995 7.10884C27.6168 7.10884 26.4926 8.23042 26.4926 9.60994Z" fill="black" hover-fill="white"/>
</svg>
