<svg width="16" height="16" viewBox="0 0 16 16" fill="none" xmlns="http://www.w3.org/2000/svg">
<path d="M3.00495 11.1803H14.3746V1.59718H1.59718V12.2864L3.00495 11.1803ZM3.55736 12.7774L0 15.5725V0.798591C0 0.357545 0.357545 0 0.798591 0H15.1732C15.6143 0 15.9718 0.357545 15.9718 0.798591V11.9789C15.9718 12.4199 15.6143 12.7774 15.1732 12.7774H3.55736ZM7.18732 8.7845H8.7845V10.3817H7.18732V8.7845ZM5.24459 4.64257C5.49939 3.36142 6.6299 2.39577 7.98591 2.39577C9.52958 2.39577 10.781 3.64716 10.781 5.19084C10.781 6.73451 9.52958 7.98591 7.98591 7.98591H7.18732V6.38872H7.98591C8.64746 6.38872 9.18379 5.85239 9.18379 5.19084C9.18379 4.52926 8.64746 3.99295 7.98591 3.99295C7.40477 3.99295 6.92027 4.40681 6.81102 4.95587L5.24459 4.64257Z" fill="#6C93FC"/>
</svg>
