<svg  width="60" height="59" viewBox="0 0 60 59" fill="none" xmlns="http://www.w3.org/2000/svg">
<path d="M25.088 0C21.5385 0.0597952 18.3325 2.1768 16.8821 5.45027L34.2481 10.6957C35.0115 6.14236 32.2762 1.7277 27.8742 0.388032C27.0855 0.148852 26.2585 0.0178113 25.4315 0H25.088ZM16.2205 7.6436C15.4445 12.2097 18.1798 16.6371 22.5945 17.9729C27.0218 19.3087 31.7418 17.1205 33.5993 12.8839L16.2205 7.6436ZM49.9985 13.2783C46.7797 13.2911 43.3574 14.8432 40.7747 18.4945L24.8972 41.0004C20.6352 47.0308 22.4927 53.3411 26.6911 56.3181C30.9022 59.3079 37.4542 58.9644 41.7162 52.934L57.581 30.4408C61.843 24.3977 59.9855 18.1001 55.7871 15.1104C54.2096 13.9908 52.3139 13.342 50.3165 13.2783H49.9985ZM49.7694 15.4793C49.9348 15.4793 50.1002 15.4793 50.2529 15.492C51.7923 15.5556 53.2427 16.1027 54.464 16.9806C57.7337 19.296 59.3748 23.9142 55.6981 29.1177L47.4921 40.7587C42.9375 39.5373 37.0852 35.3771 34.4263 31.4713L42.6576 19.8176C44.8077 16.777 47.3649 15.5302 49.7694 15.4793ZM9.03876 25.1738C7.81487 25.1865 6.60752 25.4409 5.4854 25.9371C1.27302 27.7819 -0.919041 32.4891 0.365919 36.9165L16.9966 29.652C15.33 26.8404 12.3021 25.1356 9.03876 25.1738ZM17.8999 31.7385L1.27175 39.0157C3.61903 43.0105 8.56167 44.6136 12.7982 42.7688C17.0221 40.9113 19.2103 36.1786 17.8999 31.7385Z" fill="#6C93FC"/>
</svg>
