<svg width="68" height="50" viewBox="0 0 68 50" fill="none" xmlns="http://www.w3.org/2000/svg">
<path fill-rule="evenodd" clip-rule="evenodd" d="M1.2343 42.3153C0.830586 42.3153 0.50293 41.9876 0.50293 41.5839V39.3722C0.50293 32.7723 5.87124 27.4044 12.4708 27.4044H15.5075C15.9112 27.4044 16.2388 27.732 16.2388 28.1357C16.2388 28.5395 15.9112 28.8671 15.5075 28.8671H12.4737C6.68121 28.8671 1.96851 33.5801 1.96851 39.3723V41.584C1.96851 41.9877 1.64085 42.3153 1.23713 42.3153L1.2343 42.3153ZM42.2905 42.3153C41.8868 42.3153 41.5591 41.9876 41.5591 41.5839V39.3722C41.5591 33.5797 36.8461 28.867 31.0539 28.867H28.0202C27.6165 28.867 27.2888 28.5394 27.2888 28.1356C27.2888 27.7319 27.6165 27.4043 28.0202 27.4043H31.0539C37.6539 27.4043 43.0218 32.7726 43.0218 39.3721V41.5838C43.0218 41.9875 42.6972 42.3153 42.2905 42.3153Z" fill="black"/>
<path fill-rule="evenodd" clip-rule="evenodd" d="M41.6615 50H1.85979C1.45607 50 1.12842 49.6723 1.12842 49.2686V41.5831C1.12842 41.1794 1.45607 40.8518 1.85979 40.8518C2.26351 40.8518 2.59116 41.1794 2.59116 41.5831V48.5371H40.9295V41.5831C40.9295 41.1794 41.2572 40.8518 41.6609 40.8518C42.0646 40.8518 42.3923 41.1794 42.3923 41.5831V49.2686C42.3923 49.6723 42.0653 50 41.6615 50Z" fill="black"/>
<path fill-rule="evenodd" clip-rule="evenodd" d="M21.7623 26.4088C16.6046 26.4088 12.4097 22.2136 12.4097 17.0562V12.2876C12.4097 11.8839 12.7373 11.5562 13.141 11.5562C13.5448 11.5562 13.8724 11.8839 13.8724 12.2876V17.0533C13.8724 21.4035 17.4123 24.9432 21.7624 24.9432C26.1155 24.9432 29.6523 21.4033 29.6523 17.0533V12.2847C29.6523 11.881 29.98 11.5533 30.3837 11.5533C30.7903 11.5533 31.1151 11.881 31.1151 12.2847V17.0503C31.1151 22.208 26.9199 26.4029 21.7625 26.4029L21.7623 26.4088Z" fill="black"/>
<path fill-rule="evenodd" clip-rule="evenodd" d="M13.1618 18.393H11.6054C9.72145 18.393 8.18555 16.86 8.18555 14.976C8.18555 13.092 9.71853 11.5561 11.6054 11.5561H13.1414C13.5451 11.5561 13.8727 11.8838 13.8727 12.2875C13.8727 12.6912 13.5451 13.0189 13.1414 13.0189H11.6054C10.5259 13.0189 9.64828 13.8965 9.64828 14.976C9.64828 16.0555 10.5259 16.9332 11.6054 16.9332H13.1618C13.5655 16.9332 13.8932 17.2609 13.8932 17.6646C13.8932 18.0683 13.5655 18.396 13.1618 18.396V18.393Z" fill="black"/>
<path fill-rule="evenodd" clip-rule="evenodd" d="M32.0342 13.0224C31.6305 13.0224 31.3029 12.6948 31.3029 12.2911V10.5972C31.3029 6.15631 27.687 2.54026 23.2459 2.54026H20.2795C15.8386 2.54026 12.2225 6.15324 12.2225 10.5972V12.2911C12.2225 12.6948 11.8949 13.0224 11.4911 13.0224C11.0874 13.0224 10.7598 12.6948 10.7598 12.2911V10.5972C10.7598 5.34889 15.0281 1.07761 20.2794 1.07761H23.2458C28.4941 1.07761 32.7654 5.34882 32.7654 10.5972V12.2911C32.7654 12.6948 32.438 13.0224 32.0342 13.0224Z" fill="black"/>
<path fill-rule="evenodd" clip-rule="evenodd" d="M13.4597 13.0247C13.3456 13.0247 13.2285 13.0218 13.1057 13.0159C12.7049 12.9984 12.3918 12.6561 12.4094 12.2524C12.4269 11.8487 12.7663 11.5356 13.1729 11.5561C15.5338 11.6614 15.9024 10.4971 16.2945 9.26253C16.4437 8.79737 16.5812 8.35857 16.8415 8.01332C16.9761 7.83778 17.1838 7.72954 17.4061 7.72369C17.6285 7.72076 17.8391 7.81146 17.9825 7.98113C18.0819 8.09815 20.4897 10.8481 23.9036 9.91779C28.2246 8.73882 30.8283 11.679 30.9394 11.8047C31.2027 12.109 31.1706 12.5712 30.8634 12.8374C30.5591 13.1007 30.0969 13.0685 29.8307 12.7613C29.7488 12.6677 27.7009 10.3976 24.2869 11.3278C23.655 11.5004 23.0524 11.5736 22.4818 11.5736C20.3053 11.5736 18.6172 10.4941 17.6811 9.71292C17.2861 10.968 16.622 13.0217 13.4567 13.0188L13.4597 13.0247Z" fill="black"/>
<path fill-rule="evenodd" clip-rule="evenodd" d="M15.5053 28.8638C15.1016 28.8638 14.7739 28.5361 14.7739 28.1324V22.9718C14.7739 22.5681 15.1016 22.2405 15.5053 22.2405C15.909 22.2405 16.2367 22.5681 16.2367 22.9718V28.1324C16.2367 28.5361 15.909 28.8638 15.5053 28.8638Z" fill="black"/>
<path fill-rule="evenodd" clip-rule="evenodd" d="M28.0204 28.8638C27.6167 28.8638 27.2891 28.5361 27.2891 28.1324V22.9718C27.2891 22.5681 27.6167 22.2405 28.0204 22.2405C28.4242 22.2405 28.7518 22.5681 28.7518 22.9718V28.1324C28.7518 28.5361 28.4242 28.8638 28.0204 28.8638Z" fill="black"/>
<path fill-rule="evenodd" clip-rule="evenodd" d="M42.2906 42.3153H32.3471C31.9434 42.3153 31.6157 41.9876 31.6157 41.5839C31.6157 41.1802 31.9434 40.8525 32.3471 40.8525H42.2906C42.6973 40.8525 43.022 41.1802 43.022 41.5839C43.022 41.9876 42.6973 42.3153 42.2906 42.3153Z" fill="black"/>
<path fill-rule="evenodd" clip-rule="evenodd" d="M11.1749 42.3153H1.23137C0.827656 42.3153 0.5 41.9876 0.5 41.5839C0.5 41.1802 0.827656 40.8525 1.23137 40.8525H11.1749C11.5786 40.8525 11.9063 41.1802 11.9063 41.5839C11.9063 41.9876 11.5786 42.3153 11.1749 42.3153Z" fill="black"/>
<path fill-rule="evenodd" clip-rule="evenodd" d="M11.1747 50C10.771 50 10.4434 49.6723 10.4434 49.2686V36.4844C10.4434 36.0807 10.771 35.7531 11.1747 35.7531C11.5784 35.7531 11.9061 36.0807 11.9061 36.4844V49.2686C11.9061 49.6723 11.5784 50 11.1747 50Z" fill="black"/>
<path fill-rule="evenodd" clip-rule="evenodd" d="M32.3471 50C31.9434 50 31.6157 49.6723 31.6157 49.2686V36.4844C31.6157 36.0807 31.9434 35.7531 32.3471 35.7531C32.7537 35.7531 33.0785 36.0807 33.0785 36.4844V49.2686C33.0785 49.6723 32.7508 50 32.3471 50Z" fill="black"/>
<path fill-rule="evenodd" clip-rule="evenodd" d="M31.9235 18.393H30.3642C29.9605 18.393 29.6328 18.0653 29.6328 17.6616C29.6328 17.2579 29.9605 16.9303 30.3642 16.9303H31.9235C33 16.9303 33.8777 16.0526 33.8777 14.976C33.8777 13.8965 33 13.0188 31.9235 13.0188H30.3876C29.9838 13.0188 29.6562 12.6912 29.6562 12.2875C29.6562 11.8837 29.9838 11.5561 30.3876 11.5561H31.9264C33.8104 11.5561 35.3434 13.0891 35.3434 14.976C35.3434 16.86 33.8104 18.3959 31.9264 18.393L31.9235 18.393Z" fill="black"/>
<path fill-rule="evenodd" clip-rule="evenodd" d="M21.7625 35.5891C21.6865 35.5891 21.6075 35.5774 21.5343 35.5511C17.9214 34.3605 15.6541 31.9205 14.794 28.3017C14.7004 27.9097 14.9432 27.5147 15.3352 27.4211C15.7272 27.3275 16.1222 27.5703 16.2158 27.9653C16.9413 31.0253 18.7551 33.0293 21.7596 34.0854C24.767 33.0293 26.5808 31.0254 27.3063 27.9653C27.3999 27.5732 27.7919 27.3304 28.1869 27.4211C28.5789 27.5147 28.8246 27.9097 28.731 28.3017C27.8739 31.9234 25.6037 34.3634 21.9907 35.5511C21.9175 35.5745 21.8386 35.5891 21.7625 35.5891Z" fill="black"/>
<path fill-rule="evenodd" clip-rule="evenodd" d="M46.3133 12.803C45.7487 12.803 45.2865 13.2623 45.2865 13.8299V26.8193C45.2865 27.3868 45.7487 27.8461 46.3133 27.8461H53.2145C53.7792 27.8461 54.2414 27.3868 54.2414 26.8193V13.8299C54.2414 13.2623 53.7792 12.803 53.2145 12.803H46.3133ZM53.2145 29.3086H46.3133C44.9413 29.3086 43.8237 28.1911 43.8237 26.819V13.8296C43.8237 12.4576 44.9413 11.3401 46.3133 11.3401H53.2145C54.5866 11.3401 55.7041 12.4576 55.7041 13.8296V26.819C55.7041 28.1911 54.5866 29.3086 53.2145 29.3086Z" fill="black"/>
<path fill-rule="evenodd" clip-rule="evenodd" d="M54.9732 17.2232H44.5556C44.1519 17.2232 43.8242 16.8955 43.8242 16.4918C43.8242 16.0881 44.1519 15.7604 44.5556 15.7604H54.9732C55.3769 15.7604 55.7045 16.0881 55.7045 16.4918C55.7045 16.8955 55.3769 17.2232 54.9732 17.2232Z" fill="black"/>
<path fill-rule="evenodd" clip-rule="evenodd" d="M50.7161 33.1199H48.8116C47.7145 33.1199 46.8223 32.2276 46.8223 31.1306V28.5766C46.8223 28.1729 47.1499 27.8453 47.5536 27.8453C47.9574 27.8453 48.285 28.1729 48.285 28.5766V31.1306C48.285 31.4202 48.522 31.6572 48.8116 31.6572H50.7161C51.0057 31.6572 51.2427 31.4202 51.2427 31.1306V28.5766C51.2427 28.1729 51.5704 27.8453 51.9741 27.8453C52.3778 27.8453 52.7055 28.1729 52.7055 28.5766V31.1306C52.7055 32.2276 51.8131 33.1199 50.7161 33.1199Z" fill="black"/>
<path fill-rule="evenodd" clip-rule="evenodd" d="M43.1097 45.5978H41.6645C41.2608 45.5978 40.9331 45.2701 40.9331 44.8664C40.9331 44.4627 41.2608 44.1351 41.6645 44.1351H43.1097C46.3775 44.1351 49.0339 41.4787 49.0339 38.2109V32.3892C49.0339 31.9855 49.3615 31.6578 49.7652 31.6578C50.1689 31.6578 50.4966 31.9855 50.4966 32.3892V38.2109C50.4966 42.2832 47.182 45.5978 43.1097 45.5978Z" fill="black"/>
<path fill-rule="evenodd" clip-rule="evenodd" d="M46.7258 20.0377H44.5551C44.1514 20.0377 43.8237 19.71 43.8237 19.3063C43.8237 18.9026 44.1514 18.5749 44.5551 18.5749H46.7258C47.1295 18.5749 47.4572 18.9026 47.4572 19.3063C47.4572 19.71 47.1295 20.0377 46.7258 20.0377Z" fill="black"/>
<path fill-rule="evenodd" clip-rule="evenodd" d="M46.7258 23.267H44.5551C44.1514 23.267 43.8237 22.9394 43.8237 22.5357C43.8237 22.1319 44.1514 21.8043 44.5551 21.8043H46.7258C47.1295 21.8043 47.4572 22.1319 47.4572 22.5357C47.4572 22.9394 47.1295 23.267 46.7258 23.267Z" fill="black"/>
<path fill-rule="evenodd" clip-rule="evenodd" d="M46.7258 26.4942H44.5551C44.1514 26.4942 43.8237 26.1665 43.8237 25.7628C43.8237 25.3591 44.1514 25.0314 44.5551 25.0314H46.7258C47.1295 25.0314 47.4572 25.3591 47.4572 25.7628C47.4572 26.1665 47.1295 26.4942 46.7258 26.4942Z" fill="black"/>
<path fill-rule="evenodd" clip-rule="evenodd" d="M58.2464 43.029C57.8426 43.029 57.515 42.7013 57.515 42.2976V5.36649H52.2082V8.94726C52.2082 9.35098 51.8805 9.67864 51.4768 9.67864C51.0731 9.67864 50.7454 9.35098 50.7454 8.94726V4.63509C50.7454 4.23137 51.0731 3.90371 51.4768 3.90371H58.2464C58.6501 3.90371 58.9778 4.23137 58.9778 4.63509V42.2979C58.9778 42.7016 58.6501 43.029 58.2464 43.029ZM61.675 43.029C61.2684 43.029 60.9437 42.7013 60.9437 42.2976V2.92349C60.9437 2.38227 60.5019 1.94052 59.9607 1.94052H49.7655C49.2243 1.94052 48.7826 2.38227 48.7826 2.92349V8.95003C48.7826 9.35375 48.4578 9.68141 48.0512 9.68141C47.6475 9.68141 47.3198 9.35375 47.3198 8.95003V2.92349C47.3198 1.57482 48.4168 0.477791 49.7655 0.477791H59.9607C61.3093 0.477791 62.4064 1.57482 62.4064 2.92349V42.2976C62.4064 42.7013 62.0787 43.029 61.675 43.029Z" fill="black"/>
<path fill-rule="evenodd" clip-rule="evenodd" d="M53.8848 45.3252H66.0376V43.0287H53.8848V45.3252ZM66.1807 46.7879H53.7418C53.0162 46.7879 52.4224 46.197 52.4224 45.4685V42.8853C52.4224 42.1569 53.0133 41.5659 53.7418 41.5659H66.1807C66.9091 41.5659 67.5001 42.1569 67.5001 42.8853V45.4685C67.5001 46.197 66.9091 46.7879 66.1807 46.7879Z" fill="black"/>
<path fill-rule="evenodd" clip-rule="evenodd" d="M56.2512 50C54.8528 50 53.7148 48.862 53.7148 47.4636V46.0564C53.7148 45.6527 54.0425 45.3251 54.4462 45.3251C54.8499 45.3251 55.1776 45.6527 55.1776 46.0564V47.4636C55.1776 48.0546 55.6603 48.5373 56.2513 48.5373C56.8451 48.5373 57.3249 48.0546 57.3249 47.4636V46.0564C57.3249 45.6527 57.6526 45.3251 58.0563 45.3251C58.46 45.3251 58.7877 45.6527 58.7877 46.0564V47.4636C58.7877 48.862 57.6496 50 56.2512 50Z" fill="black"/>
<path fill-rule="evenodd" clip-rule="evenodd" d="M63.6672 50C62.2689 50 61.1309 48.862 61.1309 47.4636V46.0564C61.1309 45.6527 61.4585 45.3251 61.8622 45.3251C62.2689 45.3251 62.5936 45.6527 62.5936 46.0564V47.4636C62.5936 48.0546 63.0763 48.5373 63.6673 48.5373C64.2611 48.5373 64.7409 48.0546 64.7409 47.4636V46.0564C64.7409 45.6527 65.0686 45.3251 65.4723 45.3251C65.8789 45.3251 66.2037 45.6527 66.2037 46.0564V47.4636C66.2037 48.862 65.0656 50 63.6672 50Z" fill="black"/>
<path fill-rule="evenodd" clip-rule="evenodd" d="M48.0362 12.803C47.8343 12.803 47.6383 12.7211 47.4921 12.5602C46.986 11.9985 46.708 11.2729 46.708 10.5182C46.708 9.75171 46.9918 9.02031 47.5096 8.4557C47.6471 8.30357 47.846 8.21873 48.0479 8.21873H51.4736C51.6784 8.21873 51.8744 8.30357 52.0119 8.4557C52.5297 9.02032 52.8135 9.75171 52.8135 10.5182C52.8135 11.2729 52.5356 12.0014 52.0294 12.5602C51.7603 12.8615 51.2951 12.8849 50.9967 12.6129C50.6954 12.3437 50.672 11.8815 50.9441 11.5802C51.2074 11.2876 51.3537 10.9102 51.3537 10.5153C51.3537 10.2169 51.2688 9.92723 51.1167 9.67855H48.4077C48.2526 9.92722 48.1707 10.2168 48.1707 10.5153C48.1707 10.9102 48.3141 11.2875 48.5803 11.5802C48.8523 11.8815 48.826 12.3437 48.5276 12.6129C48.3872 12.7386 48.2117 12.8001 48.0391 12.8001L48.0362 12.803Z" fill="black"/>
</svg>
