<svg width="15" height="16" viewBox="0 0 15 16" fill="none" xmlns="http://www.w3.org/2000/svg">
<path d="M13.576 15.9718H0.798591C0.357545 15.9718 0 15.6143 0 15.1732V0.798591C0 0.357545 0.357545 0 0.798591 0H13.576C14.0171 0 14.3746 0.357545 14.3746 0.798591V15.1732C14.3746 15.6143 14.0171 15.9718 13.576 15.9718ZM12.7775 14.3746V1.59718H1.59718V14.3746H12.7775ZM3.19436 3.19436H6.38873V6.38873H3.19436V3.19436ZM3.19436 7.98591H11.1803V9.58309H3.19436V7.98591ZM3.19436 11.1803H11.1803V12.7775H3.19436V11.1803ZM7.98591 3.99295H11.1803V5.59013H7.98591V3.99295Z" fill="#6C93FC"/>
</svg>
