<svg width="66" height="53" viewBox="0 0 66 53" fill="none" xmlns="http://www.w3.org/2000/svg">
<path d="M43.5 16H54M43.5 26.5H54M43.5 37H54M33 40.5C31.929 38.3545 29.7345 37 27.337 37H17.663C15.2655 37 13.071 38.3545 12 40.5M5 1.99998H61C61.9283 1.99998 62.8185 2.36873 63.4749 3.02511C64.1313 3.68149 64.5 4.57173 64.5 5.49999V47.5C64.5 48.4283 64.1313 49.3185 63.4749 49.9749C62.8185 50.6312 61.9283 51 61 51H5C4.07174 51 3.1815 50.6312 2.52513 49.9749C1.86875 49.3185 1.5 48.4283 1.5 47.5V5.49999C1.5 4.57173 1.86875 3.68149 2.52513 3.02511C3.1815 2.36873 4.07174 1.99998 5 1.99998ZM29.5 19.5C29.5 21.3565 28.7625 23.137 27.4497 24.4497C26.137 25.7625 24.3565 26.5 22.5 26.5C20.6435 26.5 18.863 25.7625 17.5503 24.4497C16.2375 23.137 15.5 21.3565 15.5 19.5C15.5 17.6435 16.2375 15.863 17.5503 14.5502C18.863 13.2375 20.6435 12.5 22.5 12.5C24.3565 12.5 26.137 13.2375 27.4497 14.5502C28.7625 15.863 29.5 17.6435 29.5 19.5Z" stroke="#6C93FC" stroke-width="3" stroke-linecap="round" stroke-linejoin="round"/>
</svg>
