<svg width="50" height="54" viewBox="0 0 50 54" fill="none" xmlns="http://www.w3.org/2000/svg">
<path d="M50.0002 41.2731L46.154 39.35V34.7692C46.1494 32.045 45.1817 29.4101 43.4222 27.3303C41.6626 25.2505 39.2245 23.8598 36.5386 23.4038V19.3846H32.6925V23.4038C30.0067 23.8598 27.5685 25.2505 25.809 27.3303C24.0494 29.4101 23.0818 32.045 23.0771 34.7692V39.35L19.231 41.2731V50.1538H30.7694V54H38.4617V50.1538H50.0002V41.2731ZM46.154 46.3077H23.0771V43.65L26.9233 41.7269V34.7692C26.9233 32.7291 27.7337 30.7725 29.1763 29.3299C30.6189 27.8874 32.5754 27.0769 34.6156 27.0769C36.6557 27.0769 38.6123 27.8874 40.0549 29.3299C41.4974 30.7725 42.3079 32.7291 42.3079 34.7692V41.7269L46.154 43.65V46.3077Z" fill="#6C93FC"/>
<path d="M46.1538 7.84615C46.1538 6.82608 45.7486 5.8478 45.0273 5.1265C44.306 4.40521 43.3278 3.99999 42.3077 3.99999H34.6154V0.153839H30.7692V3.99999H15.3846V0.153839H11.5385V3.99999H3.84615C2.82609 3.99999 1.84781 4.40521 1.12651 5.1265C0.405218 5.8478 0 6.82608 0 7.84615V46.3077C0 47.3277 0.405218 48.306 1.12651 49.0273C1.84781 49.7486 2.82609 50.1538 3.84615 50.1538H11.5385V46.3077H3.84615V7.84615H11.5385V11.6923H15.3846V7.84615H30.7692V11.6923H34.6154V7.84615H42.3077V19.3846H46.1538V7.84615Z" fill="#6C93FC"/>
</svg>
