<svg width="50" height="54" viewBox="0 0 50 54" fill="none" xmlns="http://www.w3.org/2000/svg">
<path d="M47.2222 56H2.77778C1.24367 56 0 54.7564 0 53.2222V3.22224C0 1.68812 1.24367 0.444458 2.77778 0.444458H47.2222C48.7564 0.444458 50 1.68812 50 3.22224V53.2222C50 54.7564 48.7564 56 47.2222 56ZM44.4444 50.4445V6.00001H5.55556V50.4445H44.4444ZM11.1111 11.5556H22.2222V22.6667H11.1111V11.5556ZM11.1111 28.2222H38.8889V33.7778H11.1111V28.2222ZM11.1111 39.3333H38.8889V44.8889H11.1111V39.3333ZM27.7778 14.3333H38.8889V19.8889H27.7778V14.3333Z" fill="#6C93FC"/>
</svg>
