<svg width="16" height="16" viewBox="0 0 16 16" fill="none" xmlns="http://www.w3.org/2000/svg">
<path d="M7.98591 1.59718C5.79093 1.59718 3.85326 2.70424 2.70277 4.39225H4.79154V5.98943H0V1.19789H1.59718V3.19385C3.05366 1.25511 5.37263 0 7.98591 0C12.3964 0 15.9718 3.57541 15.9718 7.98591H14.3746C14.3746 4.45751 11.5143 1.59718 7.98591 1.59718ZM1.59718 7.98591C1.59718 11.5143 4.45751 14.3746 7.98591 14.3746C10.1809 14.3746 12.1185 13.2675 13.2691 11.5796H11.1803V9.98238H15.9718V14.7739H14.3746V12.7779C12.9182 14.7167 10.5992 15.9718 7.98591 15.9718C3.57541 15.9718 0 12.3964 0 7.98591H1.59718Z" fill="#6C93FC"/>
</svg>
